<?xml version="1.0" encoding="utf-8"?>
<!-- Generator: Adobe Illustrator 28.0.0, SVG Export Plug-In . SVG Version: 6.00 Build 0)  -->
<svg version="1.1" id="Слой_1" xmlns="http://www.w3.org/2000/svg" xmlns:xlink="http://www.w3.org/1999/xlink" x="0px" y="0px"
	 viewBox="0 0 1000.1 357.2" style="enable-background:new 0 0 1000.1 357.2;" xml:space="preserve">
<style type="text/css">
	.st0{clip-path:url(#SVGID_00000121958925155420088360000010830507143704741779_);}
	.st1{fill-rule:evenodd;clip-rule:evenodd;fill:#00AAFF;}
	.st2{fill-rule:evenodd;clip-rule:evenodd;fill:#0A2896;}
</style>
<g>
	<defs>
		<rect id="SVGID_1_" width="1000" height="357.1"/>
	</defs>
	<clipPath id="SVGID_00000008115702235000808980000004582763829176097972_">
		<use xlink:href="#SVGID_1_"  style="overflow:visible;"/>
	</clipPath>
	<g style="clip-path:url(#SVGID_00000008115702235000808980000004582763829176097972_);">
		<path class="st1" d="M68.1,0L51,46.7h236l17-46.7H68.1z M42.5,70.1l-17,46.7h236l17-46.7H42.5z M17,140.1L0,186.9h236l17-46.7H17z
			"/>
		<path class="st2" d="M501.7,204.7v1c10.8,4,21.1,10.9,26.5,15.4c16.7,13.9,24,32.2,24,56c0,39.1-20.6,67.3-54.5,76.3
			c-10.3,3-21.1,4-41.2,4H354.1V71h90.7c18.6,0,31.4,1,42.7,4c32.9,8.9,54.5,31.7,54.5,67.8c0,19.3-6.9,35.7-18.1,46.5
			C518.9,194.3,512,200.2,501.7,204.7z M411,234.9v75.3h39.2c11.8,0,22.6-1,30.4-8.4c7.8-7.4,11.3-16.8,11.3-29.2
			c0-9.4-2.5-18.3-7.4-24.8c-8.3-10.4-18.6-12.9-36.3-12.9H411z M410.5,185.3h31.9c9.8,0,14.7,0,19.6-1.5
			c13.3-4,21.6-15.8,21.6-32.2c0-19.3-8.8-27.7-21.6-31.7c-5.4-1.5-10.8-2-21.6-2h-29.9V185.3z M637.6,357.2V119h-81.9V71h227.6
			l-16.2,48h-72.6v238.2H637.6z M800.9,357.2V71h184.4l-16.2,48H857.3v63.4h45.6c36.8,0,55.9,8.9,69.2,20.3
			c10.3,8.9,28,28.7,28,67.8c0,38.6-18.2,59.9-33.4,70.8c-17.7,12.4-36.3,15.8-74.1,15.8H800.9z M857.3,309.1H900
			c16.2,0,26-4,32.9-12.9c3.4-4.5,8.3-12.4,8.3-27.2s-4.9-25.3-14.7-32.7c-5.9-4.5-13.7-6.9-27-6.9h-42.2V309.1z"/>
	</g>
</g>
</svg>
